<svg xmlns="http://www.w3.org/2000/svg" xmlns:xlink="http://www.w3.org/1999/xlink" width="500" zoomAndPan="magnify" viewBox="0 0 375 374.999991" height="500" preserveAspectRatio="xMidYMid meet" version="1.0"><defs><clipPath id="18a1620210"><path d="M 99.929688 94.875 L 275.429688 94.875 L 275.429688 280.125 L 99.929688 280.125 Z M 99.929688 94.875 " clip-rule="nonzero"/></clipPath><clipPath id="3fd62b5399"><path d="M 115 134.761719 L 260 134.761719 L 260 240.511719 L 115 240.511719 Z M 115 134.761719 " clip-rule="nonzero"/></clipPath></defs><g clip-path="url(#18a1620210)"><path fill="#ff914d" d="M 187.480469 280.003906 C 139.335938 280.003906 99.929688 240.597656 99.929688 192.453125 L 99.929688 182.539062 C 99.929688 134.394531 139.335938 94.988281 187.480469 94.988281 C 235.621094 94.988281 275.027344 134.394531 275.027344 182.539062 L 275.027344 192.453125 C 275.066406 240.597656 235.65625 280.003906 187.480469 280.003906 Z M 187.480469 280.003906 " fill-opacity="1" fill-rule="nonzero"/></g><g clip-path="url(#3fd62b5399)"><path fill="#000000" d="M 259.710938 184.75 C 256.09375 188.953125 251.027344 193.476562 244.992188 195.996094 C 244.167969 194.960938 243.265625 194.03125 242.28125 193.207031 C 244.097656 185.019531 243.699219 178.839844 240.996094 174.765625 C 238.566406 179.085938 235.941406 183.347656 232.589844 186.617188 C 231.292969 185.882812 229.234375 185.394531 227.957031 184.75 C 225.160156 183.332031 223.273438 182.210938 221.242188 183.574219 C 220.367188 181.6875 218.644531 180.917969 216.085938 181.246094 C 215.335938 179.066406 213.488281 178.109375 210.949219 177.933594 C 210.011719 175.089844 208.027344 174.625 205.199219 176.058594 C 205.199219 176.058594 206.632812 160.042969 206.789062 158.277344 C 206.796875 158.171875 206.757812 158.078125 206.675781 158.015625 C 206.082031 157.5625 205.492188 157.292969 204.898438 157.113281 C 203.5 151.207031 199.75 147.414062 194.253906 145.203125 C 196.105469 138.953125 191.953125 134.761719 184.78125 134.761719 C 180.15625 134.761719 178.699219 135.679688 171.445312 138.703125 C 169.84375 139.367188 167.46875 140.367188 165.351562 140.734375 C 161.933594 141.324219 159.882812 139.214844 159.027344 138.238281 C 158.609375 139.628906 158.597656 141.101562 159.027344 142.660156 C 149.515625 142.800781 144.464844 147.683594 143.28125 156.679688 C 143.070312 158.226562 143.308594 159.546875 143.996094 160.644531 C 144.195312 160.625 145.203125 157.648438 145.339844 158.117188 C 145.339844 158.457031 144.171875 163.863281 143.675781 164.691406 C 140.875 169.414062 136.132812 169.089844 132.71875 165.253906 C 132.71875 165.253906 132.863281 170.957031 134.605469 172.914062 C 134.675781 172.988281 134.75 173.058594 134.832031 173.125 C 146.871094 182.511719 162.789062 177.78125 168.972656 164.101562 L 169.917969 176.058594 C 167.351562 174.78125 165.226562 174.804688 164.152344 177.933594 C 162.078125 177.816406 160.328125 179.097656 158.765625 181.246094 C 156.476562 180.609375 154.859375 181.460938 153.808594 183.574219 C 151.949219 182.53125 149.878906 182.777344 147.535156 184.730469 C 145.976562 184.871094 144.261719 185.585938 142.460938 186.617188 C 139.503906 182.910156 136.582031 178.847656 133.691406 174.496094 C 131.710938 178.128906 131.148438 184.3125 132.71875 193.207031 C 131.738281 194.078125 130.859375 194.945312 130.125 195.8125 C 125.601562 194.433594 120.414062 190.035156 115.648438 185.214844 C 114.917969 192.808594 117.414062 200.636719 122.988281 207.59375 C 121.460938 213.152344 121.21875 218.046875 123.160156 221.824219 L 125.386719 220.503906 C 125.285156 228.046875 126.992188 234.191406 131.183594 238.441406 C 132.785156 235.289062 134.761719 232.730469 137.273438 230.917969 C 139.382812 229.394531 141.941406 228.476562 144.242188 227.363281 C 146.046875 226.492188 147.855469 225.433594 149.289062 224.542969 C 149.320312 224.523438 149.363281 224.519531 149.402344 224.535156 C 149.441406 224.546875 149.46875 224.582031 149.480469 224.617188 C 151.046875 230.421875 152.339844 233.578125 153.570312 236.125 C 153.726562 236.441406 153.976562 236.699219 154.292969 236.859375 C 157.785156 238.628906 161.609375 239.785156 165.703125 240.4375 C 166.183594 240.511719 166.675781 240.40625 167.085938 240.140625 C 173.539062 235.949219 180.179688 232.429688 187.097656 229.921875 C 187.472656 229.789062 187.882812 229.792969 188.253906 229.9375 C 194.695312 232.453125 201.222656 236.105469 207.78125 240.140625 C 208.214844 240.40625 208.734375 240.507812 209.234375 240.417969 C 213.222656 239.726562 217.054688 238.65625 220.628906 236.917969 C 221.023438 236.71875 221.34375 236.398438 221.535156 235.996094 C 223.085938 232.679688 224.390625 228.925781 225.488281 224.8125 C 225.496094 224.78125 225.515625 224.757812 225.546875 224.742188 C 225.570312 224.726562 225.605469 224.722656 225.636719 224.734375 C 227.617188 225.398438 229.128906 226.542969 230.890625 227.367188 C 233.488281 228.582031 235.890625 229.628906 237.96875 231.203125 C 240.480469 233.097656 242.515625 235.625 243.851562 238.441406 C 248.125 234.53125 249.300781 227.847656 249.753906 220.503906 C 250.441406 221.1875 251.265625 221.761719 252.289062 222.191406 C 253.578125 218.316406 253.523438 213.410156 252.289062 207.59375 C 258.453125 200.292969 259.753906 192.578125 259.710938 184.75 Z M 259.710938 184.75 " fill-opacity="1" fill-rule="evenodd"/></g><path fill="#d2ab66" d="M 240.765625 178.660156 C 241.222656 183.167969 241.148438 188.007812 240.332031 192.429688 C 240.234375 192.941406 239.824219 193.335938 239.308594 193.414062 C 239.300781 193.410156 239.292969 193.410156 239.285156 193.410156 C 239.023438 193.449219 238.761719 193.347656 238.589844 193.148438 C 238.414062 192.953125 238.351562 192.679688 238.417969 192.421875 C 238.421875 192.40625 238.425781 192.390625 238.429688 192.375 C 239.566406 189.335938 239.820312 186.265625 239.878906 183.191406 C 238.898438 186.175781 237.78125 189.113281 235.179688 191.484375 C 234.976562 191.667969 234.675781 191.675781 234.460938 191.507812 C 233.878906 191.023438 233.496094 190.246094 233.324219 189.484375 C 233.265625 189.21875 233.351562 188.9375 233.554688 188.753906 C 237.019531 185.578125 239.175781 182.171875 240.765625 178.660156 Z M 240.765625 178.660156 " fill-opacity="1" fill-rule="evenodd"/><path fill="#d2ab66" d="M 134.25 178.660156 C 133.789062 183.191406 133.867188 188.058594 134.695312 192.496094 C 134.777344 192.90625 135.074219 193.238281 135.472656 193.359375 C 135.585938 193.390625 135.703125 193.414062 135.832031 193.421875 C 136.054688 193.441406 136.269531 193.359375 136.425781 193.199219 C 136.578125 193.042969 136.65625 192.824219 136.632812 192.605469 C 136.625 192.53125 136.609375 192.453125 136.585938 192.375 C 135.449219 189.335938 135.195312 186.265625 135.136719 183.191406 C 136.136719 186.234375 137.277344 189.222656 139.984375 191.617188 C 140.085938 191.707031 140.238281 191.722656 140.355469 191.648438 C 141.109375 191.15625 141.574219 190.179688 141.734375 189.273438 C 141.757812 189.125 141.707031 188.972656 141.597656 188.875 C 138.050781 185.667969 135.859375 182.214844 134.25 178.660156 Z M 134.25 178.660156 " fill-opacity="1" fill-rule="evenodd"/><path fill="#d2ab66" d="M 257.464844 189.84375 C 256.820312 196.835938 253.417969 202.550781 249.023438 207.804688 C 248.996094 207.839844 248.960938 207.871094 248.925781 207.902344 C 248.539062 208.210938 248.0625 208.285156 247.476562 208.09375 C 247.207031 207.992188 247.0625 207.855469 246.996094 207.691406 C 246.953125 207.574219 246.972656 207.445312 247.050781 207.351562 C 250.914062 202.835938 253.621094 198.582031 255.050781 194.625 C 252.261719 198.171875 248.8125 201.402344 244.171875 204.050781 C 243.59375 202.464844 243.476562 200.695312 243.90625 198.714844 C 250.070312 196.050781 254.722656 193.121094 257.464844 189.84375 Z M 257.464844 189.84375 " fill-opacity="1" fill-rule="evenodd"/><path fill="#d2ab66" d="M 117.53125 189.84375 C 118.179688 196.851562 121.589844 202.578125 126 207.839844 C 126.398438 208.199219 126.898438 208.296875 127.519531 208.09375 C 127.761719 208.003906 127.902344 207.886719 127.976562 207.746094 C 128.042969 207.609375 128.023438 207.445312 127.925781 207.332031 C 124.078125 202.828125 121.375 198.578125 119.945312 194.625 C 122.699219 198.128906 126.097656 201.320312 130.644531 203.949219 C 130.691406 203.976562 130.746094 203.980469 130.792969 203.960938 C 130.839844 203.945312 130.878906 203.90625 130.898438 203.855469 C 131.390625 202.378906 131.496094 200.75 131.136719 198.941406 C 131.109375 198.800781 131.011719 198.679688 130.886719 198.625 C 124.824219 195.992188 120.238281 193.085938 117.53125 189.84375 Z M 117.53125 189.84375 " fill-opacity="1" fill-rule="evenodd"/><path fill="#d2ab66" d="M 241.367188 195.214844 C 241.175781 195.03125 240.914062 194.933594 240.648438 194.941406 C 239.535156 194.960938 236.332031 194.894531 234.429688 193.648438 C 232.335938 192.269531 231.605469 189.628906 231.425781 188.820312 C 231.394531 188.671875 231.289062 188.542969 231.148438 188.476562 C 230.152344 188.046875 229.023438 187.667969 227.714844 187.355469 C 227.703125 187.351562 227.691406 187.351562 227.679688 187.351562 C 226.941406 187.488281 226.660156 193.46875 223.746094 197.4375 C 220.265625 202.179688 214.089844 205.042969 214.089844 205.941406 C 213.4375 213.816406 216.164062 218.523438 222.433594 219.023438 C 222.433594 219.023438 224.390625 218.980469 226.46875 218.339844 C 227.769531 217.9375 229.347656 216.960938 230.960938 216.453125 C 233.644531 215.601562 236.570312 215.234375 239.507812 215.0625 C 244.867188 214.746094 248.746094 217.03125 249.871094 217.378906 C 249.921875 217.382812 249.976562 217.359375 250.015625 217.320312 C 250.054688 217.28125 250.074219 217.226562 250.070312 217.175781 C 249.929688 214.820312 250.074219 212.613281 249.699219 210.460938 C 249.699219 210.460938 244.816406 208.996094 243 205.449219 C 241.632812 202.78125 242.46875 198.570312 242.746094 197.375 C 242.800781 197.164062 242.761719 196.9375 242.640625 196.753906 C 242.277344 196.207031 241.867188 195.6875 241.367188 195.214844 Z M 241.367188 195.214844 " fill-opacity="1" fill-rule="evenodd"/><path fill="#d2ab66" d="M 133.667969 195.21875 C 133.863281 195.03125 134.125 194.933594 134.394531 194.941406 C 135.511719 194.960938 138.707031 194.894531 140.609375 193.648438 C 142.722656 192.261719 143.449219 189.589844 143.621094 188.800781 C 143.648438 188.660156 143.742188 188.546875 143.875 188.488281 C 144.871094 188.050781 146.011719 187.667969 147.328125 187.355469 C 147.335938 187.351562 147.347656 187.351562 147.363281 187.351562 C 148.097656 187.488281 148.378906 193.46875 151.292969 197.4375 C 154.773438 202.179688 160.949219 205.042969 160.949219 205.941406 C 161.605469 213.816406 158.875 218.523438 152.605469 219.023438 C 152.605469 219.023438 150.648438 218.980469 148.570312 218.339844 C 147.273438 217.9375 145.691406 216.960938 144.078125 216.453125 C 141.394531 215.601562 138.46875 215.234375 135.53125 215.0625 C 130.058594 214.738281 126.128906 217.128906 125.101562 217.398438 C 125.066406 217.398438 125.027344 217.386719 125 217.355469 C 124.976562 217.332031 124.960938 217.292969 124.960938 217.253906 C 125.113281 214.871094 124.960938 212.640625 125.339844 210.460938 C 125.339844 210.460938 130.222656 208.996094 132.039062 205.449219 C 133.421875 202.75 132.550781 198.464844 132.28125 197.332031 C 132.234375 197.148438 132.269531 196.953125 132.371094 196.796875 C 132.742188 196.234375 133.160156 195.703125 133.667969 195.21875 Z M 133.667969 195.21875 " fill-opacity="1" fill-rule="evenodd"/><path fill="#ffffff" d="M 229.15625 191.6875 C 228.269531 194.488281 227.140625 196.570312 225.863281 198.1875 C 229.484375 199.464844 233.617188 205.09375 237.761719 213.15625 C 238.570312 212.578125 242.371094 212.492188 248.113281 213.410156 C 241.234375 209.738281 238.660156 204.582031 239.984375 197.574219 C 235.75 197.636719 232.101562 195.804688 229.15625 191.6875 Z M 229.15625 191.6875 " fill-opacity="1" fill-rule="evenodd"/><path fill="#ffffff" d="M 145.714844 191.867188 C 145.742188 191.835938 145.785156 191.816406 145.824219 191.824219 C 145.867188 191.832031 145.902344 191.859375 145.917969 191.898438 C 146.746094 194.449219 147.777344 196.394531 148.945312 197.925781 C 148.992188 197.988281 149.003906 198.070312 148.984375 198.140625 C 148.964844 198.214844 148.914062 198.273438 148.84375 198.304688 C 145.347656 199.757812 141.40625 205.136719 137.441406 212.769531 C 137.339844 212.96875 137.105469 213.0625 136.890625 212.996094 C 135.640625 212.578125 132.144531 212.585938 127.125 213.371094 C 127.105469 213.375 127.085938 213.367188 127.082031 213.34375 C 127.074219 213.328125 127.082031 213.3125 127.101562 213.296875 C 133.738281 209.679688 136.265625 204.644531 135.070312 197.84375 C 135.058594 197.78125 135.082031 197.710938 135.121094 197.65625 C 135.164062 197.605469 135.230469 197.578125 135.296875 197.578125 C 139.351562 197.554688 142.859375 195.769531 145.714844 191.867188 Z M 145.714844 191.867188 " fill-opacity="1" fill-rule="evenodd"/><path fill="#ffffff" d="M 225.964844 210.035156 C 225.964844 210.371094 225.894531 210.691406 225.753906 211 C 225.613281 211.308594 225.414062 211.582031 225.152344 211.820312 C 224.894531 212.054688 224.597656 212.238281 224.257812 212.367188 C 223.917969 212.492188 223.566406 212.558594 223.199219 212.558594 C 222.832031 212.558594 222.480469 212.492188 222.140625 212.367188 C 221.804688 212.238281 221.503906 212.054688 221.246094 211.820312 C 220.988281 211.582031 220.785156 211.308594 220.648438 211 C 220.507812 210.691406 220.4375 210.371094 220.4375 210.035156 C 220.4375 209.703125 220.507812 209.378906 220.648438 209.070312 C 220.785156 208.761719 220.988281 208.492188 221.246094 208.253906 C 221.503906 208.019531 221.804688 207.835938 222.140625 207.707031 C 222.480469 207.578125 222.832031 207.515625 223.199219 207.515625 C 223.566406 207.515625 223.917969 207.578125 224.257812 207.707031 C 224.597656 207.835938 224.894531 208.019531 225.152344 208.253906 C 225.414062 208.492188 225.613281 208.761719 225.753906 209.070312 C 225.894531 209.378906 225.964844 209.703125 225.964844 210.035156 Z M 225.964844 210.035156 " fill-opacity="1" fill-rule="nonzero"/><path fill="#ffffff" d="M 154.6875 210.035156 C 154.6875 210.371094 154.617188 210.691406 154.476562 211 C 154.339844 211.308594 154.136719 211.582031 153.878906 211.820312 C 153.621094 212.054688 153.320312 212.238281 152.984375 212.367188 C 152.644531 212.492188 152.292969 212.558594 151.925781 212.558594 C 151.558594 212.558594 151.207031 212.492188 150.867188 212.367188 C 150.527344 212.238281 150.230469 212.054688 149.972656 211.820312 C 149.710938 211.582031 149.511719 211.308594 149.371094 211 C 149.230469 210.691406 149.160156 210.371094 149.160156 210.035156 C 149.160156 209.703125 149.230469 209.378906 149.371094 209.070312 C 149.511719 208.761719 149.710938 208.492188 149.972656 208.253906 C 150.230469 208.019531 150.527344 207.835938 150.867188 207.707031 C 151.207031 207.578125 151.558594 207.515625 151.925781 207.515625 C 152.292969 207.515625 152.644531 207.578125 152.984375 207.707031 C 153.320312 207.835938 153.621094 208.019531 153.878906 208.253906 C 154.136719 208.492188 154.335938 208.761719 154.476562 209.070312 C 154.617188 209.378906 154.6875 209.703125 154.6875 210.035156 Z M 154.6875 210.035156 " fill-opacity="1" fill-rule="nonzero"/><path fill="#000000" d="M 219.9375 208.246094 C 216.476562 209.703125 215.773438 215.0625 221.152344 216.480469 C 226.980469 218.015625 228.640625 212.207031 226.789062 209.804688 C 226.789062 209.804688 226.832031 210.925781 226.511719 211.945312 C 226.332031 212.515625 225.90625 212.996094 225.609375 213.363281 C 224.488281 214.742188 221.929688 214.269531 221.871094 214.191406 C 221.871094 214.191406 219.941406 213.808594 219.289062 211.882812 C 218.785156 210.398438 219.9375 208.246094 219.9375 208.246094 Z M 219.9375 208.246094 " fill-opacity="1" fill-rule="evenodd"/><path fill="#000000" d="M 155.035156 208.246094 C 158.5 209.703125 159.199219 215.0625 153.820312 216.480469 C 147.992188 218.015625 146.332031 212.207031 148.183594 209.804688 C 148.183594 209.804688 148.140625 210.925781 148.460938 211.945312 C 148.640625 212.515625 149.066406 212.996094 149.363281 213.363281 C 150.484375 214.742188 153.042969 214.269531 153.105469 214.191406 C 153.105469 214.191406 155.035156 213.808594 155.683594 211.882812 C 156.1875 210.398438 155.035156 208.246094 155.035156 208.246094 Z M 155.035156 208.246094 " fill-opacity="1" fill-rule="evenodd"/><path fill="#000000" d="M 227.757812 215.402344 C 227.75 215.429688 227.757812 215.457031 227.777344 215.472656 C 227.796875 215.492188 227.824219 215.496094 227.851562 215.492188 C 229.527344 214.980469 231.0625 214.390625 232.394531 213.679688 C 232.488281 213.632812 232.539062 213.519531 232.503906 213.414062 C 230.507812 207.554688 227.972656 202.832031 224.46875 200.164062 C 224.414062 200.121094 224.332031 200.132812 224.289062 200.183594 C 222.191406 202.699219 219.535156 204.890625 216.425781 206.816406 C 216.351562 206.863281 216.300781 206.941406 216.289062 207.03125 C 216.042969 208.636719 216.082031 210.183594 216.300781 211.6875 C 216.304688 211.695312 216.308594 211.699219 216.316406 211.699219 C 216.320312 211.703125 216.328125 211.699219 216.328125 211.695312 C 217.25 210.007812 218.585938 208.167969 220.230469 207.609375 C 224.734375 206.078125 229.246094 208.40625 227.757812 215.402344 Z M 227.757812 215.402344 " fill-opacity="1" fill-rule="evenodd"/><path fill="#000000" d="M 147.332031 215.289062 C 147.339844 215.339844 147.324219 215.390625 147.285156 215.425781 C 147.25 215.457031 147.195312 215.46875 147.144531 215.457031 C 145.585938 214.976562 144.152344 214.425781 142.890625 213.773438 C 142.695312 213.671875 142.601562 213.4375 142.671875 213.230469 C 144.652344 207.472656 147.160156 202.832031 150.609375 200.1875 C 150.6875 200.132812 150.789062 200.140625 150.84375 200.214844 C 152.933594 202.710938 155.574219 204.886719 158.664062 206.804688 C 158.753906 206.859375 158.8125 206.949219 158.828125 207.054688 C 159.066406 208.652344 159.027344 210.1875 158.808594 211.6875 C 158.808594 211.691406 158.804688 211.695312 158.792969 211.699219 C 158.789062 211.699219 158.78125 211.695312 158.777344 211.691406 C 157.859375 210.003906 156.519531 208.167969 154.878906 207.609375 C 150.402344 206.085938 145.914062 208.382812 147.332031 215.289062 Z M 147.332031 215.289062 " fill-opacity="1" fill-rule="evenodd"/><path fill="#d2ab66" d="M 244.417969 234.457031 C 244.390625 234.507812 244.339844 234.539062 244.285156 234.542969 C 244.226562 234.539062 244.167969 234.515625 244.144531 234.464844 C 240.53125 228.636719 233.03125 224.65625 225.917969 221.285156 C 225.847656 221.253906 225.804688 221.1875 225.796875 221.109375 C 225.792969 221.03125 225.832031 220.960938 225.898438 220.921875 C 231.832031 217.28125 240.570312 216.550781 247.773438 218.957031 C 247.882812 218.996094 247.953125 219.101562 247.941406 219.214844 C 247.371094 226.378906 246.097656 231.214844 244.417969 234.457031 Z M 244.417969 234.457031 " fill-opacity="1" fill-rule="evenodd"/><path fill="#d2ab66" d="M 130.785156 234.625 C 130.792969 234.644531 130.8125 234.652344 130.828125 234.652344 C 130.84375 234.652344 130.863281 234.640625 130.875 234.628906 C 134.480469 228.644531 142.175781 224.601562 149.425781 221.175781 C 149.449219 221.164062 149.464844 221.144531 149.464844 221.121094 C 149.46875 221.09375 149.453125 221.070312 149.433594 221.058594 C 143.496094 217.300781 134.644531 216.523438 127.355469 218.949219 C 127.234375 218.992188 127.160156 219.105469 127.171875 219.230469 C 127.753906 226.507812 129.0625 231.382812 130.785156 234.625 Z M 130.785156 234.625 " fill-opacity="1" fill-rule="evenodd"/><path fill="#a2824f" d="M 221.496094 222.066406 C 221.289062 222.035156 221.089844 222.148438 221.011719 222.335938 C 219.6875 225.476562 218.597656 228.644531 217.738281 231.839844 C 217.617188 232.289062 217.296875 232.660156 216.867188 232.835938 C 214.746094 233.707031 212.683594 234.375 210.707031 234.777344 C 210.300781 234.851562 209.878906 234.757812 209.546875 234.511719 C 204.027344 230.386719 198.046875 226.929688 191.328125 224.535156 C 190.363281 223.699219 190.183594 220.425781 190.753906 215.9375 C 190.890625 214.84375 191.300781 213.863281 191.488281 212.613281 C 188.53125 214.59375 187.871094 220.679688 188.140625 228.144531 C 192.257812 228.734375 199.015625 232.328125 207.183594 237.527344 C 207.535156 237.75 207.953125 237.832031 208.363281 237.765625 C 212.328125 237.089844 216.105469 236.128906 219.613281 234.761719 C 219.945312 234.628906 220.203125 234.355469 220.308594 234.011719 C 221.433594 230.453125 222.414062 226.957031 223.128906 223.574219 C 223.199219 223.230469 223.070312 222.871094 222.796875 222.648438 C 222.390625 222.320312 221.957031 222.136719 221.496094 222.066406 Z M 221.496094 222.066406 " fill-opacity="1" fill-rule="evenodd"/><path fill="#a2824f" d="M 153.730469 222.046875 C 153.851562 222.035156 153.957031 222.101562 154.007812 222.210938 C 155.339844 225.351562 156.433594 228.527344 157.304688 231.726562 C 157.445312 232.25 157.816406 232.679688 158.316406 232.882812 C 160.316406 233.699219 162.257812 234.332031 164.128906 234.726562 C 164.679688 234.839844 165.25 234.707031 165.703125 234.375 C 171.175781 230.3125 177.097656 226.902344 183.738281 224.535156 C 184.707031 223.699219 184.886719 220.425781 184.316406 215.9375 C 184.179688 214.84375 183.769531 213.863281 183.578125 212.613281 C 186.535156 214.59375 187.199219 220.679688 186.925781 228.144531 C 182.859375 228.730469 176.203125 232.25 168.152344 237.355469 C 167.628906 237.691406 166.996094 237.816406 166.378906 237.707031 C 162.625 237.050781 159.035156 236.132812 155.695312 234.851562 C 155.214844 234.664062 154.839844 234.265625 154.683594 233.769531 C 153.570312 230.230469 152.605469 226.75 151.902344 223.382812 C 151.859375 223.179688 151.925781 222.972656 152.070312 222.828125 C 152.578125 222.339844 153.136719 222.101562 153.730469 222.046875 Z M 153.730469 222.046875 " fill-opacity="1" fill-rule="evenodd"/><path fill="#d2ab66" d="M 211.695312 206.921875 C 209.164062 208.195312 206.285156 209.359375 202.726562 210.160156 C 200.316406 210.703125 197.445312 210.9375 194.710938 211.46875 C 193.617188 211.683594 192.636719 212.414062 191.5 212.613281 C 189.605469 219.242188 189.871094 222.707031 191.121094 224.304688 C 197.839844 225.140625 204.132812 227.695312 209.855469 232.210938 C 210.105469 232.414062 210.453125 232.453125 210.742188 232.320312 C 212.117188 231.683594 213.515625 231.070312 215.199219 230.742188 C 215.515625 230.679688 215.773438 230.4375 215.851562 230.125 C 216.667969 226.984375 217.699219 223.890625 219.234375 220.90625 C 213.914062 218.300781 211.496094 213.570312 211.695312 206.921875 Z M 211.695312 206.921875 " fill-opacity="1" fill-rule="evenodd"/><path fill="#d2ab66" d="M 163.382812 206.921875 C 165.914062 208.195312 168.792969 209.359375 172.351562 210.160156 C 174.765625 210.703125 177.636719 210.9375 180.367188 211.46875 C 181.460938 211.683594 182.445312 212.414062 183.582031 212.613281 C 185.40625 219.175781 185.207031 222.691406 183.953125 224.300781 C 177.320312 225.125 171.105469 227.632812 165.445312 232.039062 C 165.058594 232.34375 164.535156 232.40625 164.085938 232.203125 C 162.863281 231.644531 161.605469 231.113281 160.136719 230.796875 C 159.660156 230.691406 159.277344 230.328125 159.152344 229.851562 C 158.351562 226.804688 157.335938 223.804688 155.84375 220.90625 C 161.164062 218.300781 163.585938 213.570312 163.382812 206.921875 Z M 163.382812 206.921875 " fill-opacity="1" fill-rule="evenodd"/><path fill="#ffffff" d="M 210.332031 210.097656 C 210.328125 209.980469 210.265625 209.871094 210.171875 209.8125 C 210.074219 209.746094 209.949219 209.734375 209.84375 209.777344 C 205.65625 211.410156 199.972656 212.375 193.765625 213.105469 C 193.164062 213.175781 192.632812 213.527344 192.324219 214.050781 C 191.617188 215.25 191.351562 216.589844 191.5625 218.082031 C 192.210938 216.789062 193.324219 215.632812 194.996094 215.167969 C 197.40625 214.503906 200.777344 214.867188 203.804688 214.78125 C 206.414062 214.707031 208.144531 214.066406 210.800781 214.054688 C 210.917969 214.054688 211.027344 213.996094 211.085938 213.898438 C 211.148438 213.800781 211.15625 213.679688 211.109375 213.574219 C 210.640625 212.519531 210.375 211.359375 210.332031 210.097656 Z M 210.332031 210.097656 " fill-opacity="1" fill-rule="evenodd"/><path fill="#ffffff" d="M 164.753906 210.03125 C 164.753906 209.929688 164.804688 209.835938 164.890625 209.78125 C 164.976562 209.726562 165.082031 209.714844 165.175781 209.753906 C 169.417969 211.417969 175.210938 212.394531 181.535156 213.136719 C 181.96875 213.183594 182.363281 213.425781 182.601562 213.796875 C 183.417969 215.0625 183.746094 216.484375 183.515625 218.082031 C 182.871094 216.789062 181.757812 215.632812 180.085938 215.167969 C 177.671875 214.503906 174.304688 214.867188 171.277344 214.78125 C 168.699219 214.710938 166.984375 214.085938 164.390625 214.054688 C 164.25 214.054688 164.121094 213.980469 164.042969 213.863281 C 163.972656 213.746094 163.957031 213.601562 164.015625 213.472656 C 164.464844 212.425781 164.714844 211.285156 164.753906 210.03125 Z M 164.753906 210.03125 " fill-opacity="1" fill-rule="evenodd"/><path fill="#ee1e24" d="M 226.058594 187.597656 C 226.113281 187.085938 225.925781 186.578125 225.558594 186.222656 C 224.75 185.4375 223.667969 185.285156 222.335938 185.71875 C 222.105469 185.796875 221.957031 186.019531 221.976562 186.261719 C 222.199219 188.863281 221.316406 191.320312 220.125 193.734375 C 221.496094 187.433594 220.207031 184.9375 218.054688 183.679688 C 218.347656 184.6875 218.304688 185.710938 218.386719 186.636719 C 218.898438 192.230469 216 196.363281 211.808594 200.148438 C 212.78125 198.863281 213.863281 197.765625 214.585938 196.539062 C 216.4375 193.398438 217.042969 190.359375 216.785156 187.65625 C 216.503906 184.710938 215.132812 182.152344 211.691406 179.984375 C 212.050781 186.609375 209.289062 192.15625 204.417969 196.960938 C 205.53125 195.40625 206.417969 194.652344 207.21875 193.207031 C 210.421875 187.4375 211.082031 181.902344 208.035156 178.105469 C 207.628906 177.59375 207.007812 177.292969 206.351562 177.292969 C 205.96875 177.289062 205.539062 177.289062 205.214844 177.289062 C 205.082031 177.289062 204.957031 177.34375 204.871094 177.449219 C 204.789062 177.546875 204.753906 177.683594 204.777344 177.808594 C 205.09375 179.578125 205.347656 181.113281 205.457031 182.765625 C 205.953125 190.304688 202.867188 197.265625 197.695312 203.847656 C 204.527344 200.609375 210.25 196.414062 213.234375 189.855469 C 211.171875 197.246094 206.296875 202.972656 200.066406 207.902344 C 216.285156 206.308594 224.785156 199.425781 226.058594 187.597656 Z M 226.058594 187.597656 " fill-opacity="1" fill-rule="evenodd"/><path fill="#ee1e24" d="M 148.953125 187.421875 C 148.921875 187.082031 149.023438 186.742188 149.242188 186.476562 C 149.996094 185.558594 151.03125 185.289062 152.316406 185.609375 C 152.757812 185.714844 153.054688 186.121094 153.027344 186.570312 C 152.902344 189.058594 153.765625 191.414062 154.90625 193.734375 C 153.535156 187.433594 154.824219 184.9375 156.976562 183.679688 C 156.683594 184.6875 156.726562 185.710938 156.644531 186.636719 C 156.136719 192.230469 159.03125 196.363281 163.222656 200.148438 C 162.25 198.863281 161.167969 197.765625 160.445312 196.539062 C 158.59375 193.398438 157.988281 190.359375 158.246094 187.65625 C 158.527344 184.710938 159.898438 182.152344 163.339844 179.984375 C 162.980469 186.609375 165.742188 192.15625 170.613281 196.960938 C 169.5 195.40625 168.613281 194.652344 167.8125 193.207031 C 164.488281 187.21875 163.902344 181.480469 167.363281 177.675781 C 167.585938 177.429688 167.902344 177.289062 168.234375 177.289062 C 168.765625 177.289062 169.589844 177.289062 170.039062 177.289062 C 170.113281 177.289062 170.1875 177.324219 170.238281 177.382812 C 170.289062 177.441406 170.308594 177.519531 170.292969 177.59375 C 169.953125 179.457031 169.6875 181.042969 169.574219 182.765625 C 169.078125 190.304688 172.164062 197.265625 177.335938 203.847656 C 170.503906 200.609375 164.78125 196.414062 161.796875 189.855469 C 163.859375 197.246094 168.734375 202.972656 174.964844 207.902344 C 158.664062 206.300781 150.164062 199.359375 148.953125 187.421875 Z M 148.953125 187.421875 " fill-opacity="1" fill-rule="evenodd"/><path fill="#d2ab66" d="M 187.320312 170.734375 C 187.710938 170.796875 188.113281 170.800781 188.507812 170.746094 C 193.371094 170.058594 197.554688 168.742188 201.367188 166.683594 C 201.394531 166.671875 201.421875 166.675781 201.445312 166.6875 C 201.464844 166.703125 201.480469 166.734375 201.476562 166.757812 C 201.023438 172.183594 197.683594 175.171875 191.222656 175.523438 C 191.019531 175.535156 190.859375 175.703125 190.859375 175.910156 C 190.855469 178.988281 190.855469 200.386719 190.855469 203.265625 C 190.855469 203.308594 190.882812 203.34375 190.925781 203.355469 C 190.96875 203.371094 191.007812 203.355469 191.03125 203.316406 C 195.398438 196.632812 199.410156 189.886719 202.828125 183.042969 C 202.925781 182.847656 202.980469 182.632812 202.988281 182.414062 C 203.210938 175.011719 203.527344 167.5625 204.058594 160.007812 C 204.085938 159.625 203.839844 159.269531 203.46875 159.160156 C 195.78125 156.867188 190.40625 152.324219 187.722656 145.164062 C 187.71875 145.144531 187.699219 145.128906 187.675781 145.128906 C 187.652344 145.128906 187.632812 145.140625 187.625 145.160156 C 184.433594 152.207031 179.179688 157.039062 171.492188 159.253906 C 171.3125 159.308594 171.191406 159.480469 171.203125 159.671875 C 171.660156 167.132812 171.941406 174.675781 172.089844 182.292969 C 172.09375 182.59375 172.164062 182.886719 172.289062 183.160156 C 175.484375 189.960938 179.507812 196.660156 183.949219 203.308594 C 183.972656 203.34375 184.019531 203.359375 184.0625 203.347656 C 184.105469 203.335938 184.132812 203.296875 184.132812 203.25 C 184.132812 200.304688 184.132812 178.910156 184.132812 175.894531 C 184.132812 175.695312 183.984375 175.53125 183.785156 175.515625 C 177.261719 174.996094 173.960938 172.054688 173.75 166.789062 C 173.75 166.753906 173.765625 166.71875 173.792969 166.699219 C 173.824219 166.683594 173.863281 166.679688 173.894531 166.695312 C 177.789062 168.597656 182.410156 169.929688 187.320312 170.734375 Z M 187.320312 170.734375 " fill-opacity="1" fill-rule="evenodd"/><path fill="#000000" d="M 183.019531 177.625 C 183.023438 177.335938 182.792969 177.09375 182.507812 177.089844 C 180.355469 177.027344 178.625 176.40625 177.242188 175.320312 C 177.183594 175.277344 177.105469 175.265625 177.039062 175.296875 C 176.972656 175.328125 176.929688 175.398438 176.925781 175.472656 C 176.894531 180.097656 177.03125 184.621094 177.296875 189.066406 C 177.320312 189.46875 177.433594 189.859375 177.628906 190.214844 C 179.117188 192.902344 180.742188 195.492188 182.449219 198.019531 C 182.488281 198.074219 182.554688 198.097656 182.617188 198.078125 C 182.679688 198.058594 182.722656 198 182.722656 197.9375 C 182.765625 195.105469 182.972656 180.589844 183.019531 177.625 Z M 183.019531 177.625 " fill-opacity="1" fill-rule="evenodd"/><path fill="#ffffff" d="M 196.613281 176.703125 C 196.613281 176.632812 196.582031 176.570312 196.523438 176.527344 C 196.464844 176.488281 196.394531 176.480469 196.328125 176.507812 C 194.953125 177.027344 193.773438 177.34375 192.839844 177.421875 C 192.617188 177.433594 192.445312 177.617188 192.445312 177.835938 C 192.445312 180.535156 192.445312 196.101562 192.445312 197.683594 C 192.445312 197.703125 192.457031 197.714844 192.476562 197.722656 C 192.492188 197.730469 192.511719 197.722656 192.519531 197.707031 C 194.066406 195.5 195.417969 193.210938 196.613281 190.863281 Z M 196.613281 176.703125 " fill-opacity="1" fill-rule="evenodd"/><path fill="#000000" d="M 201.148438 172.429688 C 201.148438 172.390625 201.121094 172.355469 201.082031 172.339844 C 201.046875 172.328125 201.003906 172.339844 200.980469 172.367188 C 199.96875 173.511719 198.835938 174.546875 197.539062 175.433594 C 197.179688 175.679688 196.964844 176.085938 196.964844 176.523438 C 196.960938 179.183594 196.960938 188.523438 196.960938 190.027344 C 196.960938 190.058594 196.976562 190.082031 197.003906 190.085938 C 197.027344 190.09375 197.054688 190.082031 197.066406 190.0625 C 198.394531 187.882812 199.621094 185.601562 200.703125 183.183594 C 200.808594 182.949219 200.871094 182.699219 200.882812 182.441406 C 201.089844 179.042969 201.191406 175.699219 201.148438 172.429688 Z M 201.148438 172.429688 " fill-opacity="1" fill-rule="evenodd"/><path fill="#ffffff" d="M 196.613281 158.816406 C 196.613281 158.550781 196.476562 158.296875 196.253906 158.152344 C 193.183594 156.105469 190.8125 153.445312 188.839844 150.429688 C 188.820312 150.402344 188.792969 150.394531 188.761719 150.398438 C 188.734375 150.410156 188.710938 150.433594 188.710938 150.46875 C 188.578125 156.523438 188.628906 162.53125 188.972656 168.453125 C 188.976562 168.53125 189.015625 168.605469 189.078125 168.652344 C 189.144531 168.699219 189.226562 168.710938 189.304688 168.695312 C 191.597656 168.082031 193.917969 167.472656 196.273438 166.863281 C 196.476562 166.808594 196.613281 166.628906 196.613281 166.425781 C 196.613281 165.085938 196.613281 160.292969 196.613281 158.816406 Z M 196.613281 158.816406 " fill-opacity="1" fill-rule="evenodd"/><path fill="#000000" d="M 202.085938 161.015625 C 202.105469 160.824219 201.984375 160.648438 201.800781 160.59375 C 200.824219 160.34375 199.660156 160.175781 198.84375 159.722656 C 198.773438 159.679688 198.683594 159.675781 198.605469 159.710938 C 198.527344 159.75 198.476562 159.824219 198.472656 159.90625 C 198.246094 162.003906 198.265625 163.65625 198.234375 165.707031 C 198.234375 165.796875 198.28125 165.882812 198.355469 165.929688 C 198.429688 165.980469 198.527344 165.984375 198.605469 165.945312 C 199.429688 165.550781 200.332031 165.417969 201.300781 165.492188 C 201.484375 165.503906 201.648438 165.371094 201.671875 165.1875 C 201.828125 163.84375 201.9375 162.453125 202.085938 161.015625 Z M 202.085938 161.015625 " fill-opacity="1" fill-rule="evenodd"/><path fill="#000000" d="M 187.335938 148.742188 C 187.335938 148.710938 187.316406 148.6875 187.289062 148.679688 C 187.257812 148.671875 187.226562 148.679688 187.210938 148.707031 C 184.492188 152.863281 181.054688 156.226562 176.746094 158.625 C 176.523438 158.746094 176.394531 158.996094 176.421875 159.25 C 176.660156 161.59375 176.753906 163.972656 176.695312 166.394531 C 176.6875 166.59375 176.8125 166.773438 176.996094 166.847656 C 180.273438 168.101562 183.640625 168.898438 187.078125 169.332031 C 187.144531 169.339844 187.207031 169.324219 187.257812 169.277344 C 187.308594 169.234375 187.335938 169.167969 187.335938 169.105469 C 187.335938 166.855469 187.335938 150.859375 187.335938 148.742188 Z M 187.335938 148.742188 " fill-opacity="1" fill-rule="evenodd"/><path fill="#d2ab66" d="M 202.535156 157.867188 C 201.324219 150.699219 196.117188 146.925781 189.488281 145.898438 C 189.464844 145.894531 189.433594 145.90625 189.417969 145.925781 C 189.398438 145.945312 189.398438 145.976562 189.40625 146 C 191.113281 150.171875 194.027344 153.5 197.601562 155.246094 C 197.445312 152.964844 195.855469 150.523438 193.148438 147.96875 C 197.695312 150.164062 200.28125 153.382812 201.097656 157.222656 Z M 202.535156 157.867188 " fill-opacity="1" fill-rule="evenodd"/><path fill="#d2ab66" d="M 172.335938 157.867188 C 173.519531 150.691406 178.605469 146.910156 185.074219 145.890625 C 185.09375 145.886719 185.117188 145.898438 185.128906 145.914062 C 185.140625 145.929688 185.144531 145.953125 185.136719 145.96875 C 183.476562 150.15625 180.632812 153.5 177.144531 155.246094 C 177.292969 152.984375 178.8125 150.574219 181.402344 148.042969 C 181.40625 148.042969 181.410156 148.03125 181.402344 148.023438 C 181.402344 148.015625 181.390625 148.015625 181.382812 148.019531 C 177.011719 150.214844 174.523438 153.410156 173.738281 157.222656 Z M 172.335938 157.867188 " fill-opacity="1" fill-rule="evenodd"/><path fill="#ffffff" d="M 192.886719 147.8125 C 192.875 147.796875 192.875 147.773438 192.882812 147.757812 C 192.898438 147.746094 192.917969 147.738281 192.933594 147.742188 C 196.757812 149.0625 199.820312 152.128906 201.410156 157.28125 L 197.714844 155.421875 C 196.742188 153.046875 195.003906 150.328125 192.886719 147.8125 Z M 192.886719 147.8125 " fill-opacity="1" fill-rule="evenodd"/><path fill="#ee1e24" d="M 161.394531 142.5625 C 162.328125 144.4375 164.089844 145.539062 167.617188 144.988281 C 167.621094 144.988281 167.621094 144.988281 167.621094 144.988281 C 167.621094 144.984375 167.621094 144.984375 167.621094 144.984375 C 166.449219 145.152344 166.027344 146.144531 164.886719 145.960938 C 160.34375 145.4375 157.367188 144.671875 154.386719 145.460938 C 149.207031 146.835938 145.566406 151.078125 144.804688 156.347656 C 146.128906 154.703125 147.628906 153.539062 150.417969 153.867188 C 149.316406 154.203125 148.382812 154.371094 147.875 155.777344 C 146.523438 159.519531 145.976562 164.152344 144.160156 166.90625 C 142.308594 169.71875 139.167969 170.609375 135.8125 170.128906 C 135.980469 170.714844 136.332031 172.292969 137.378906 172.859375 C 141.75 175.207031 147.128906 174.40625 149.683594 170.128906 C 150.710938 168.40625 150.589844 165.449219 150.914062 162.890625 C 151.195312 160.683594 151.921875 158.867188 152.699219 157.28125 C 154.292969 154.042969 156.859375 153.582031 159.050781 152.671875 C 161.105469 151.492188 151.988281 151.214844 153.984375 151.195312 C 154.761719 150.433594 156.46875 149.78125 158.285156 149.566406 C 159.839844 149.378906 161.402344 149.605469 163.386719 149.351562 C 165.457031 149.085938 166.960938 148.304688 168.714844 147.09375 C 171.65625 145.0625 172.941406 142.335938 175.800781 140.910156 C 180.605469 138.507812 186.105469 137.652344 189.328125 139.566406 C 190.574219 140.308594 190.984375 141.667969 191.621094 143.214844 C 191.699219 143.410156 191.78125 143.765625 191.957031 143.953125 C 192.039062 144.035156 192.160156 144.0625 192.273438 144.027344 C 192.386719 143.996094 192.46875 143.902344 192.492188 143.785156 C 192.925781 141.570312 192.636719 139.675781 191.328125 138.4375 C 189.417969 136.632812 185.679688 136.074219 181.710938 136.667969 C 177.570312 137.289062 173.730469 140.273438 167.695312 142.171875 C 165.382812 142.902344 163.578125 142.5625 161.394531 142.5625 Z M 161.394531 142.5625 " fill-opacity="1" fill-rule="evenodd"/></svg>